<svg width="24" height="24" viewBox="0 0 24 24" fill="none" xmlns="http://www.w3.org/2000/svg">
<g clip-path="url(#clip0_123_4)">
<path d="M12.045 0.03302C11.5902 0.0335917 11.1359 0.0596324 10.684 0.11102C11.3192 0.548246 11.9249 1.02695 12.497 1.54402L12.977 1.98202L12.512 2.43202C12.1149 2.8128 11.739 3.21507 11.386 3.63702L11.208 3.85202C11.4936 3.82087 11.7807 3.80419 12.068 3.80202C13.3203 3.8164 14.5525 4.1191 15.669 4.68665C16.7855 5.2542 17.7563 6.07134 18.506 7.0747C19.2557 8.07805 19.7643 9.24064 19.9922 10.4723C20.2202 11.704 20.1613 12.9716 19.8203 14.1768C19.4794 15.3821 18.8653 16.4926 18.0259 17.4222C17.1865 18.3518 16.1443 19.0755 14.98 19.5372C13.8158 19.999 12.5609 20.1862 11.3126 20.0846C10.0643 19.9829 8.8562 19.595 7.782 18.951C7.17093 19.0222 6.55621 19.0576 5.941 19.057H5.081C5.10591 20.0171 5.1941 20.9745 5.345 21.923C6.89567 22.9684 8.66975 23.6358 10.5249 23.8715C12.3801 24.1073 14.2647 23.905 16.0275 23.2807C17.7903 22.6565 19.3823 21.6277 20.6758 20.2769C21.9692 18.9262 22.9281 17.291 23.4754 15.5027C24.0228 13.7144 24.1434 11.8226 23.8276 9.97925C23.5118 8.13587 22.7684 6.39217 21.6571 4.88804C20.5457 3.38391 19.0972 2.16123 17.428 1.31809C15.7587 0.474949 13.9151 0.0348228 12.045 0.03302ZM8.17 0.67802C7.24742 0.996358 6.36644 1.42443 5.546 1.95302C6.15841 2.05988 6.76383 2.20347 7.359 2.38302C7.60022 1.80129 7.8709 1.23222 8.17 0.67802ZM9.423 0.75002C9.0459 1.39241 8.71345 2.05998 8.428 2.74802C8.97444 2.93909 9.51021 3.15941 10.033 3.40802C10.1681 3.2316 10.3116 3.06174 10.463 2.89902C10.697 2.61302 10.935 2.34002 11.179 2.08202C10.627 1.59569 10.0401 1.15049 9.423 0.75002ZM4.68 2.94902C4.61916 3.7265 4.61916 4.50754 4.68 5.28502C5.267 5.22002 5.876 5.18502 6.492 5.17802C6.62008 4.58705 6.78031 4.00352 6.972 3.43002C6.22037 3.21553 5.45444 3.05479 4.68 2.94902ZM3.62 3.50002C2.90243 4.21152 2.27811 5.01125 1.762 5.88002C2.37876 5.69663 3.00544 5.54839 3.639 5.43602C3.59672 4.79154 3.59038 4.14521 3.62 3.50002ZM8.026 3.78702C7.883 4.22402 7.761 4.67502 7.646 5.13402C8.17077 4.80453 8.73096 4.53516 9.316 4.33102C8.893 4.13102 8.471 3.95102 8.026 3.78702ZM6.3 6.21602C5.78007 6.22322 5.26094 6.25927 4.745 6.32402C4.809 6.84702 4.902 7.36202 5.017 7.87802C5.3734 7.27248 5.80444 6.71411 6.3 6.21602ZM3.75 6.35302C2.86329 6.51464 1.99257 6.75424 1.148 7.06902H1.07V7.14802C1.42103 8.0297 1.84483 8.88064 2.337 9.69202L2.38 9.76302L2.452 9.71402C3.00678 9.31711 3.58592 8.9554 4.186 8.63102L4.243 8.59602V8.54002C4.06295 7.85133 3.92668 7.15193 3.835 6.44602V6.35402L3.75 6.35302ZM0.644 8.09502L0.581 8.29502C0.226307 9.38113 0.0306134 10.5129 0 11.655L0 11.864L0.143 11.712C0.641268 11.1981 1.17024 10.7149 1.727 10.265L1.784 10.222L1.741 10.158C1.35858 9.5579 1.01617 8.93322 0.716 8.28802L0.644 8.09502ZM4.414 9.34802L4.234 9.44802C3.769 9.72102 3.304 10.021 2.859 10.337L2.794 10.387L2.844 10.451C3.153 10.888 3.489 11.318 3.84 11.727L3.977 11.892V11.684C4.00179 10.9543 4.12421 10.2312 4.341 9.53402L4.414 9.34802ZM2.2 10.853L2.128 10.903C1.48073 11.4344 0.874658 12.014 0.315 12.637L0.257 12.695L0.323 12.752C0.945812 13.299 1.61163 13.7949 2.314 14.235L2.386 14.285L2.429 14.205C2.74785 13.6384 3.09945 13.0908 3.482 12.565V12.515L3.439 12.465C3.01323 11.9748 2.61592 11.4607 2.249 10.925L2.2 10.853ZM4.055 12.924L3.934 13.096C3.6021 13.5564 3.29596 14.0348 3.017 14.529L2.974 14.601L3.045 14.644C3.55193 14.9265 4.07331 15.1821 4.607 15.41L4.8 15.496L4.714 15.303C4.39238 14.6139 4.17017 13.8826 4.054 13.131L4.055 12.924ZM0.079 13.404V13.604C0.228722 14.7533 0.547501 15.874 1.025 16.93L1.103 17.116L1.175 16.922C1.41167 16.2372 1.69397 15.5691 2.02 14.922L2.077 14.859L2.013 14.816C1.3943 14.4262 0.801101 13.9973 0.237 13.532L0.079 13.404ZM2.622 15.209L2.587 15.289C2.18991 16.0861 1.86107 16.9154 1.604 17.768V17.848H1.69C2.57026 18.0904 3.46948 18.2576 4.378 18.348L4.45 18.355V18.269C4.46435 17.5811 4.51911 16.8945 4.614 16.213V16.148H4.55C3.9154 15.8886 3.29784 15.5894 2.701 15.252L2.622 15.209ZM5.166 16.378V16.492C5.08329 17.0982 5.03289 17.7084 5.015 18.32V18.398H5.946C6.233 18.398 6.57 18.412 6.892 18.398H7.101L6.935 18.269C6.29716 17.7458 5.74397 17.1272 5.295 16.435L5.166 16.378ZM1.876 18.478L1.991 18.65C2.67799 19.6866 3.52209 20.61 4.493 21.387L4.65 21.516V21.315C4.54293 20.5403 4.47617 19.7606 4.45 18.979V18.908H4.378C3.60304 18.8343 2.83439 18.705 2.078 18.521L1.876 18.478Z" fill="white"/>
</g>
<defs>
<clipPath id="clip0_123_4">
<rect width="24" height="24" fill="white"/>
</clipPath>
</defs>
</svg>
