<svg width="24" height="24" viewBox="0 0 24 24" fill="none" xmlns="http://www.w3.org/2000/svg">
<path d="M7.15693 22.201C7.15693 22.678 6.96911 23.1354 6.63476 23.4727C6.30041 23.8101 5.8469 23.9997 5.37393 24C4.90078 24 4.44701 23.8105 4.11245 23.4731C3.77788 23.1357 3.58993 22.6781 3.58993 22.201C3.58993 21.7239 3.77788 21.2663 4.11245 20.9289C4.44701 20.5915 4.90078 20.402 5.37393 20.402C5.8469 20.4023 6.30041 20.5919 6.63476 20.9293C6.96911 21.2666 7.15693 21.7241 7.15693 22.201ZM20.5819 1.427C20.5821 1.61448 20.5456 1.80015 20.4745 1.9734C20.4034 2.14664 20.2992 2.30407 20.1678 2.43669C20.0364 2.5693 19.8804 2.6745 19.7087 2.74628C19.5369 2.81806 19.3528 2.855 19.1669 2.855C18.9809 2.85513 18.7967 2.81829 18.6249 2.74657C18.453 2.67485 18.2969 2.56967 18.1654 2.43704C18.0339 2.30442 17.9296 2.14694 17.8584 1.97363C17.7873 1.80032 17.7508 1.61457 17.7509 1.427C17.7509 1.23952 17.7876 1.05388 17.8587 0.880678C17.9299 0.707481 18.0342 0.550125 18.1657 0.417602C18.2972 0.28508 18.4533 0.179989 18.6251 0.108335C18.7969 0.0366805 18.981 -0.000132139 19.1669 3.56386e-07C19.5422 3.56386e-07 19.9021 0.150345 20.1675 0.417959C20.4328 0.685573 20.5819 1.04854 20.5819 1.427ZM4.99193 3.336C4.9914 3.61555 4.881 3.88348 4.68492 4.08106C4.48884 4.27863 4.22309 4.38973 3.94593 4.39C3.66842 4.39 3.40226 4.27888 3.20594 4.08106C3.00961 3.88324 2.89919 3.6149 2.89893 3.335C2.89919 3.0551 3.00961 2.78676 3.20594 2.58894C3.40226 2.39112 3.66842 2.28 3.94593 2.28C4.22343 2.28027 4.48949 2.39164 4.68562 2.58965C4.88175 2.78766 4.99193 3.05611 4.99193 3.336ZM12.3279 4.853C16.0969 4.853 19.3879 6.233 21.0959 8.277C20.4624 6.4469 19.277 4.85829 17.7029 3.73C16.1349 2.6068 14.2547 2.00255 12.3259 2.002C10.3975 2.00276 8.51764 2.607 6.94993 3.73C5.37552 4.85814 4.18972 6.44677 3.55593 8.277C5.26893 6.237 8.55993 4.853 12.3279 4.853ZM12.3289 18.148C8.56093 18.148 5.26893 16.767 3.56093 14.723C4.19472 16.5532 5.38052 18.1419 6.95493 19.27C8.52212 20.3935 10.4016 20.9984 12.3299 21C14.2588 20.9992 16.1391 20.3946 17.7069 19.271C19.281 18.1427 20.4664 16.5541 21.0999 14.724C19.3879 16.768 16.0969 18.149 12.3279 18.149L12.3289 18.148Z" fill="white"/>
</svg>
