<svg width="100" height="100" viewBox="0 0 100 100" fill="none" xmlns="http://www.w3.org/2000/svg">
<rect width="100" height="100" rx="50" fill="#CF9D7C"/>
<path d="M27.9231 73C27.4133 73 27 72.5867 27 72.0769L27 27.9231C27 27.4133 27.4133 27 27.9231 27H34.8225V29.1253C34.8225 29.9149 35.7566 30.3465 36.3981 29.8861C37.5559 29.0552 38.6009 28.5245 39.9636 27.9623C41.9074 27.1383 43.9013 27 45.9873 27C49.2111 27 51.8778 27.6013 53.9875 28.8039C56.0972 30.0065 57.6617 31.5543 58.681 33.4474C59.724 35.3404 60.2455 37.289 60.2455 39.2934V60.151C60.2455 60.6608 59.8322 61.0741 59.3224 61.0741H53.3461C52.8363 61.0741 52.423 60.6608 52.423 60.151V41.565C52.423 39.2043 51.6645 37.3113 50.1474 35.886C48.654 34.4607 46.568 33.748 43.8894 33.748C42.1353 33.748 40.5708 34.1155 39.1959 34.8504C37.8448 35.5853 36.7781 36.6098 35.9958 37.9237C35.2136 39.2154 34.8225 40.7298 34.8225 42.467L34.8225 72.0769C34.8225 72.5867 34.4092 73 33.8994 73H27.9231Z" fill="#121212"/>
<path d="M34.8225 27V29.1253C34.8225 29.9149 35.7566 30.3465 36.3981 29.8861C37.5559 29.0552 38.6009 28.5245 39.9636 27.9623C41.9074 27.1383 43.9013 27 45.9873 27H34.8225Z" fill="#121212"/>
<path d="M72.0769 27C72.5867 27 73 27.4133 73 27.9231L73 72.0769C73 72.5867 72.5867 73 72.0769 73H65.1775V70.8747C65.1775 70.0851 64.2434 69.6535 63.6019 70.1139C62.4441 70.9448 61.3991 71.4756 60.0364 72.0377C58.0926 72.8617 56.0987 73 54.0127 73C50.7889 73 48.1222 72.3987 46.0125 71.1961C43.9028 69.9935 42.3383 68.4457 41.319 66.5527C40.276 64.6596 39.7545 62.711 39.7545 60.7066V39.849C39.7545 39.3392 40.1678 38.9259 40.6776 38.9259H46.6539C47.1637 38.9259 47.577 39.3392 47.577 39.849V58.435C47.577 60.7957 48.3355 62.6887 49.8526 64.114C51.346 65.5393 53.432 66.252 56.1106 66.252C57.8647 66.252 59.4292 65.8845 60.8041 65.1496C62.1552 64.4147 63.2219 63.3902 64.0042 62.0763C64.7864 60.7846 65.1775 59.2702 65.1775 57.533L65.1775 27.9231C65.1775 27.4133 65.5908 27 66.1006 27H72.0769Z" fill="#121212"/>
<path d="M65.1775 73V70.8747C65.1775 70.0851 64.2434 69.6535 63.6019 70.1139C62.4441 70.9448 61.3991 71.4756 60.0364 72.0377C58.0926 72.8617 56.0987 73 54.0127 73H65.1775Z" fill="#121212"/>
</svg>
