<svg width="24" height="24" viewBox="0 0 24 24" fill="none" xmlns="http://www.w3.org/2000/svg">
<g clip-path="url(#clip0_123_6)">
<path d="M11.9473 0C10.7875 0.0021 9.84912 0.944 9.85132 2.1038C9.85207 2.51912 9.97596 2.92489 10.2073 3.2698L11.1023 2.3739C11.0402 2.18508 11.0435 1.98084 11.1118 1.79415C11.18 1.60747 11.3092 1.44923 11.4785 1.34499C11.6477 1.24075 11.8471 1.19659 12.0446 1.21964C12.242 1.24269 12.4259 1.33161 12.5666 1.47204C12.7073 1.61247 12.7965 1.79621 12.8199 1.9936C12.8433 2.19099 12.7995 2.3905 12.6956 2.55993C12.5916 2.72936 12.4336 2.85882 12.247 2.9274C12.0605 2.99598 11.8562 2.99968 11.6673 2.9379L10.7723 3.8329C11.7316 4.4807 13.0344 4.2282 13.6823 3.2689C14.3301 2.3096 14.0776 1.0069 13.1183 0.3589C12.7724 0.125349 12.3647 0.000379027 11.9473 0ZM11.1123 6.1128C11.1138 5.40427 10.8846 4.71453 10.4593 4.1478L9.29532 5.3098C9.47218 5.63314 9.53691 6.00598 9.47937 6.37002C9.42184 6.73406 9.24528 7.06876 8.97732 7.3218L9.60932 8.8667C10.0699 8.56965 10.4487 8.16199 10.7112 7.68094C10.9738 7.19988 11.1117 6.66083 11.1123 6.1128ZM7.86242 7.7788H7.83242C6.91072 7.7797 6.16272 7.0333 6.16172 6.1115C6.16072 5.1898 6.90712 4.4418 7.82892 4.4408C8.15573 4.44046 8.47545 4.53608 8.74842 4.7158L9.90042 3.5638C8.49352 2.4228 6.42802 2.6381 5.28692 4.0449C4.14582 5.4517 4.36122 7.5172 5.76792 8.6584C6.14498 8.96423 6.58523 9.18254 7.0569 9.29757C7.52857 9.41261 8.01989 9.4215 8.49542 9.3236L7.86242 7.7788ZM11.9903 9.1147C11.2623 9.1147 10.5383 9.2207 9.84032 9.4297L10.7623 11.6816C13.4495 10.9997 16.1807 12.6254 16.8625 15.3126C17.5443 17.9999 15.9186 20.731 13.2314 21.4128C10.5442 22.0946 7.81302 20.4689 7.13122 17.7818C6.56302 15.5424 7.59672 13.2044 9.63532 12.1175L8.72532 9.8726C5.03452 11.6806 3.50802 16.1383 5.31602 19.8293L5.31652 19.8303C7.12452 23.5212 11.5822 25.0476 15.2732 23.2396L15.2742 23.2391C18.9655 21.432 20.4929 16.9746 18.6858 13.2833C18.0733 12.0321 17.1218 10.978 15.9398 10.2408C14.7577 9.50371 13.3924 9.11318 11.9993 9.1137H11.9913L11.9903 9.1147Z" fill="white"/>
</g>
<defs>
<clipPath id="clip0_123_6">
<rect width="24" height="24" fill="white"/>
</clipPath>
</defs>
</svg>
