<svg width="24" height="24" viewBox="0 0 24 24" fill="none" xmlns="http://www.w3.org/2000/svg">
<g clip-path="url(#clip0_121_14)">
<path d="M4.45877 4.208C5.20477 4.814 5.48477 4.768 6.88677 4.674L20.1018 3.881C20.3818 3.881 20.1488 3.601 20.0558 3.555L17.8598 1.968C17.4398 1.642 16.8788 1.268 15.8048 1.361L3.00977 2.295C2.54377 2.341 2.44977 2.575 2.63577 2.761L4.45877 4.208ZM5.25177 7.288V21.192C5.25177 21.939 5.62477 22.219 6.46577 22.172L20.9888 21.332C21.8298 21.286 21.9238 20.772 21.9238 20.165V6.354C21.9238 5.748 21.6908 5.421 21.1758 5.467L5.99877 6.354C5.43877 6.401 5.25177 6.682 5.25177 7.288ZM19.5888 8.033C19.6818 8.453 19.5888 8.873 19.1688 8.921L18.4688 9.061V19.325C17.8608 19.652 17.3008 19.839 16.8338 19.839C16.0858 19.839 15.8988 19.605 15.3388 18.906L10.7618 11.72V18.672L12.2098 19C12.2098 19 12.2098 19.84 11.0418 19.84L7.81977 20.026C7.72677 19.84 7.81977 19.373 8.14677 19.28L8.98677 19.047V9.854L7.82177 9.76C7.72777 9.34 7.96177 8.734 8.61477 8.687L12.0708 8.454L16.8348 15.733V9.293L15.6198 9.154C15.5268 8.64 15.8998 8.267 16.3668 8.221L19.5888 8.033ZM1.93577 1.035L15.2458 0.0549961C16.8798 -0.0850039 17.3008 0.00799608 18.3278 0.754996L22.5768 3.741C23.2768 4.254 23.5108 4.394 23.5108 4.954V21.332C23.5108 22.358 23.1378 22.966 21.8308 23.058L6.37277 23.992C5.39277 24.039 4.92477 23.899 4.41077 23.245L1.28177 19.185C0.72177 18.438 0.48877 17.879 0.48877 17.225V2.667C0.48877 1.828 0.86277 1.127 1.93577 1.035Z" fill="white"/>
</g>
<defs>
<clipPath id="clip0_121_14">
<rect width="24" height="24" fill="white"/>
</clipPath>
</defs>
</svg>
