<svg width="449" height="85" viewBox="0 0 449 85" fill="none" xmlns="http://www.w3.org/2000/svg">
<path d="M296.159 83.02V25.9437H309.178V33.8422C311.387 30.2677 314.07 27.7694 317.225 26.3473C320.381 24.8868 323.774 24.1565 327.403 24.1565C328.587 24.1565 329.711 24.2142 330.776 24.3295C331.841 24.4448 332.867 24.6177 333.853 24.8483L332.137 37.9355C330.954 37.5896 329.751 37.3206 328.528 37.1284C327.305 36.9362 326.082 36.8401 324.859 36.8401C320.322 36.8401 316.575 38.2046 313.616 40.9335C310.657 43.6239 309.178 47.2945 309.178 51.9451V83.02H296.159Z" fill="black"/>
<path d="M173.732 25.9437C178.978 25.9437 183.318 26.9623 186.75 28.9993C190.143 31.0748 192.687 33.8037 194.383 37.186C196.08 40.5683 196.928 44.2581 196.928 48.2554V66.1277H183.91V50.6191C183.91 46.6987 182.726 43.5471 180.359 41.1641C177.953 38.8195 174.639 37.6472 170.418 37.6472C167.656 37.6472 165.191 38.243 163.021 39.4345C160.851 40.6644 159.135 42.3748 157.873 44.5656C156.571 46.7564 155.92 49.2931 155.92 52.1757V84.7496H142.902V25.9437H154.618H173.732Z" fill="black"/>
<path d="M187.025 84.7496C181.778 84.7496 177.439 83.731 174.007 81.694C170.614 79.6185 168.07 76.8896 166.373 73.5073C164.677 70.125 163.829 66.4352 163.829 62.4379V44.5656H176.847V60.0742C176.847 63.9946 178.031 67.1462 180.398 69.5292C182.804 71.8738 186.118 73.0461 190.339 73.0461C193.1 73.0461 195.566 72.4503 197.736 71.2588C199.905 70.0289 201.622 68.3185 202.884 66.1277C204.186 63.9369 204.837 61.4002 204.837 58.5176V25.9437H217.855L218 84.7496H206.283H187.025Z" fill="black"/>
<path fill-rule="evenodd" clip-rule="evenodd" d="M99.7839 84.7496C93.9453 84.7496 88.7775 83.4428 84.2802 80.8292C79.8224 78.1772 76.3114 74.5835 73.7472 70.0481C71.2224 65.4743 69.96 60.2856 69.96 54.4819C69.96 50.1387 70.6899 46.1222 72.1495 42.4324C73.6091 38.7427 75.6605 35.5333 78.3036 32.8044C80.9467 30.0755 84.1027 27.9616 87.7715 26.4626C91.4403 24.9636 95.4444 24.2142 99.7839 24.2142C105.544 24.2142 110.356 25.4057 114.222 27.7886C117.089 29.5375 119.456 31.6591 121.323 34.1533V25.9437H132.921V83.02H121.323V74.8104C119.456 77.3046 117.089 79.4262 114.222 81.1751C110.356 83.5581 105.544 84.7496 99.7839 84.7496ZM111.027 71.2012C108.226 72.7386 105.05 73.5073 101.5 73.5073C97.91 73.5073 94.7146 72.7386 91.9137 71.2012C89.1522 69.6253 86.9628 67.4153 85.3453 64.5711C83.7279 61.7269 82.9192 58.3638 82.9192 54.4819C82.9192 50.5999 83.7279 47.2368 85.3453 44.3926C86.9628 41.51 89.1522 39.3 91.9137 37.7626C94.7146 36.2252 97.91 35.4564 101.5 35.4564C105.05 35.4564 108.226 36.2252 111.027 37.7626C113.828 39.3 116.017 41.51 117.595 44.3926C119.213 47.2368 120.021 50.5999 120.021 54.4819C120.021 58.3638 119.213 61.7269 117.595 64.5711C116.017 67.4153 113.828 69.6253 111.027 71.2012Z" fill="black"/>
<path fill-rule="evenodd" clip-rule="evenodd" d="M29.3504 84.7496C23.6303 84.7496 18.561 83.4428 14.1427 80.8292C9.72431 78.1772 6.25275 74.5835 3.72798 70.0481C1.24266 65.4743 0 60.2856 0 54.4819C0 50.2924 0.710091 46.372 2.13027 42.7207C3.55046 39.0309 5.56238 35.8024 8.16605 33.035C10.8092 30.2677 13.9257 28.1153 17.5156 26.5779C21.1449 25.0021 25.1491 24.2142 29.528 24.2142C34.8537 24.2142 39.4692 25.2519 43.3747 27.3274C46.0208 28.7336 48.368 30.5103 50.4165 32.6575V0H63.4348V83.02H51.7183V74.9299C49.7922 77.3433 47.366 79.425 44.4399 81.1751C40.4949 83.5581 35.4651 84.7496 29.3504 84.7496ZM41.3628 71.2012C38.5619 72.7386 35.3468 73.5073 31.7174 73.5073C28.1275 73.5073 24.9124 72.7386 22.072 71.2012C19.2711 69.6253 17.0619 67.4153 15.4445 64.5711C13.8271 61.7269 13.0183 58.3638 13.0183 54.4819C13.0183 50.5999 13.8271 47.2368 15.4445 44.3926C17.0619 41.51 19.2711 39.3 22.072 37.7626C24.8729 36.2252 28.0881 35.4564 31.7174 35.4564C35.3468 35.4564 38.5619 36.2252 41.3628 37.7626C44.2032 39.3 46.4321 41.51 48.0495 44.3926C49.6669 47.2368 50.4757 50.5999 50.4757 54.4819C50.4757 58.3638 49.6669 61.7269 48.0495 64.5711C46.4321 67.4153 44.2032 69.6253 41.3628 71.2012Z" fill="black"/>
<path fill-rule="evenodd" clip-rule="evenodd" d="M254.456 84.7496C248.617 84.7496 243.449 83.4428 238.952 80.8292C234.494 78.1772 230.983 74.5835 228.419 70.0481C225.894 65.4743 224.632 60.2856 224.632 54.4819C224.632 50.1387 225.362 46.1222 226.821 42.4324C228.281 38.7427 230.332 35.5333 232.975 32.8044C235.619 30.0755 238.774 27.9616 242.443 26.4626C246.112 24.9636 250.116 24.2142 254.456 24.2142C260.215 24.2142 265.028 25.4057 268.894 27.7886C271.761 29.5376 274.128 31.6591 275.995 34.1534V25.9437H287.593V83.02H275.995V74.8104C274.128 77.3046 271.761 79.4262 268.894 81.1751C265.028 83.5581 260.215 84.7496 254.456 84.7496ZM265.699 71.2012C262.898 72.7386 259.722 73.5073 256.172 73.5073C252.582 73.5073 249.386 72.7386 246.586 71.2012C243.824 69.6253 241.635 67.4153 240.017 64.5711C238.4 61.7269 237.591 58.3638 237.591 54.4819C237.591 50.5999 238.4 47.2368 240.017 44.3926C241.635 41.51 243.824 39.3 246.586 37.7626C249.386 36.2252 252.582 35.4564 256.172 35.4564C259.722 35.4564 262.898 36.2252 265.699 37.7626C268.5 39.3 270.689 41.51 272.267 44.3926C273.885 47.2368 274.693 50.5999 274.693 54.4819C274.693 58.3638 273.885 61.7269 272.267 64.5711C270.689 67.4153 268.5 69.6253 265.699 71.2012Z" fill="black"/>
<path d="M368.229 84.7496C362.509 84.7496 357.933 83.1353 354.501 79.9067C351.069 76.6782 349.353 71.7393 349.353 65.09V36.4365H336.512V25.9437H349.353V9.28209H362.371V25.9437H378.644V36.4365H362.371V62.3226C362.371 66.3199 363.14 69.1449 364.679 70.7976C366.257 72.4119 368.466 73.219 371.306 73.219C372.687 73.219 373.989 73.0653 375.212 72.7578C376.435 72.4503 377.539 72.0467 378.525 71.5471L380.833 81.8093C379.137 82.6548 377.184 83.3467 374.975 83.8848C372.805 84.4613 370.557 84.7496 368.229 84.7496Z" fill="black"/>
<path fill-rule="evenodd" clip-rule="evenodd" d="M415.362 84.7496C409.524 84.7496 404.356 83.4428 399.859 80.8292C395.401 78.1772 391.89 74.5835 389.326 70.0481C386.801 65.4743 385.539 60.2856 385.539 54.4819C385.539 50.1387 386.268 46.1222 387.728 42.4324C389.188 38.7427 391.239 35.5333 393.882 32.8044C396.525 30.0755 399.681 27.9616 403.35 26.4626C407.019 24.9636 411.023 24.2142 415.362 24.2142C421.122 24.2142 425.935 25.4057 429.801 27.7886C432.667 29.5375 435.034 31.6591 436.902 34.1533V25.9437H448.5V83.02H436.902V74.8104C435.034 77.3046 432.667 79.4262 429.801 81.1751C425.935 83.5581 421.122 84.7496 415.362 84.7496ZM426.605 71.2012C423.805 72.7386 420.629 73.5073 417.078 73.5073C413.489 73.5073 410.293 72.7386 407.492 71.2012C404.731 69.6253 402.541 67.4153 400.924 64.5711C399.306 61.7269 398.498 58.3638 398.498 54.4819C398.498 50.5999 399.306 47.2368 400.924 44.3926C402.541 41.51 404.731 39.3 407.492 37.7626C410.293 36.2252 413.489 35.4564 417.078 35.4564C420.629 35.4564 423.805 36.2252 426.605 37.7626C429.406 39.3 431.596 41.51 433.174 44.3926C434.791 47.2368 435.6 50.5999 435.6 54.4819C435.6 58.3638 434.791 61.7269 433.174 64.5711C431.596 67.4153 429.406 69.6253 426.605 71.2012Z" fill="black"/>
</svg>
