<svg width="449" height="85" viewBox="0 0 449 85" fill="none" xmlns="http://www.w3.org/2000/svg">
<path d="M29.3504 84.7496C23.6303 84.7496 18.561 83.4428 14.1427 80.8292C9.72431 78.1772 6.25275 74.5835 3.72798 70.0481C1.24266 65.4743 0 60.2856 0 54.4819C0 50.2924 0.710091 46.372 2.13027 42.7207C3.55046 39.0309 5.56238 35.8024 8.16605 33.035C10.8092 30.2677 13.9257 28.1153 17.5156 26.5779C21.1449 25.0021 25.1491 24.2142 29.528 24.2142C34.8537 24.2142 39.4692 25.2519 43.3747 27.3274C47.2802 29.4029 50.5348 32.2855 53.1385 35.9753L50.4165 38.8003V0H63.4348V83.02H51.7183V69.2986L53.6119 72.1813C51.4816 75.7942 48.4243 78.7921 44.4399 81.1751C40.4949 83.5581 35.4651 84.7496 29.3504 84.7496ZM31.7174 73.5073C35.3468 73.5073 38.5619 72.7386 41.3628 71.2012C44.2032 69.6253 46.4321 67.4153 48.0495 64.5711C49.6669 61.7269 50.4757 58.3638 50.4757 54.4819C50.4757 50.5999 49.6669 47.2368 48.0495 44.3926C46.4321 41.51 44.2032 39.3 41.3628 37.7626C38.5619 36.2252 35.3468 35.4564 31.7174 35.4564C28.0881 35.4564 24.8729 36.2252 22.072 37.7626C19.2711 39.3 17.0619 41.51 15.4445 44.3926C13.8271 47.2368 13.0183 50.5999 13.0183 54.4819C13.0183 58.3638 13.8271 61.7269 15.4445 64.5711C17.0619 67.4153 19.2711 69.6253 22.072 71.2012C24.9124 72.7386 28.1275 73.5073 31.7174 73.5073Z" fill="white"/>
<path d="M99.7839 84.7496C93.9453 84.7496 88.7775 83.4428 84.2802 80.8292C79.8224 78.1772 76.3114 74.5835 73.7472 70.0481C71.2224 65.4743 69.96 60.2856 69.96 54.4819C69.96 50.1387 70.6899 46.1222 72.1495 42.4324C73.6091 38.7427 75.6605 35.5333 78.3036 32.8044C80.9467 30.0755 84.1027 27.9616 87.7715 26.4626C91.4403 24.9636 95.4444 24.2142 99.7839 24.2142C105.544 24.2142 110.356 25.4057 114.222 27.7886C118.128 30.1716 121.106 33.2464 123.158 37.0131L121.323 39.7228V25.9437H132.921V83.02H121.323V69.241L123.158 71.9506C121.106 75.7173 118.128 78.7921 114.222 81.1751C110.356 83.5581 105.544 84.7496 99.7839 84.7496ZM101.5 73.5073C105.05 73.5073 108.226 72.7386 111.027 71.2012C113.828 69.6253 116.017 67.4153 117.595 64.5711C119.213 61.7269 120.021 58.3638 120.021 54.4819C120.021 50.5999 119.213 47.2368 117.595 44.3926C116.017 41.51 113.828 39.3 111.027 37.7626C108.226 36.2252 105.05 35.4564 101.5 35.4564C97.91 35.4564 94.7146 36.2252 91.9137 37.7626C89.1522 39.3 86.9628 41.51 85.3453 44.3926C83.7279 47.2368 82.9192 50.5999 82.9192 54.4819C82.9192 58.3638 83.7279 61.7269 85.3453 64.5711C86.9628 67.4153 89.1522 69.6253 91.9137 71.2012C94.7146 72.7386 97.91 73.5073 101.5 73.5073Z" fill="white"/>
<path d="M187.025 84.7496C181.778 84.7496 177.439 83.731 174.007 81.694C170.614 79.6185 168.07 76.8896 166.373 73.5073C164.677 70.125 163.829 66.4352 163.829 62.4379V44.5656H176.847V60.0742C176.847 63.9946 178.031 67.1462 180.398 69.5292C182.804 71.8738 186.118 73.0461 190.339 73.0461C193.1 73.0461 195.566 72.4503 197.736 71.2588C199.905 70.0289 201.622 68.3185 202.884 66.1277C204.186 63.9369 204.837 61.4002 204.837 58.5176V25.9437H217.855L218 84.7496H206.283L206.138 76.2746C203.85 78.9651 201.128 81.0598 197.972 82.5588C194.856 84.0193 191.207 84.7496 187.025 84.7496Z" fill="white"/>
<path d="M254.456 84.7496C248.617 84.7496 243.449 83.4428 238.952 80.8292C234.494 78.1772 230.983 74.5835 228.419 70.0481C225.894 65.4743 224.632 60.2856 224.632 54.4819C224.632 50.1387 225.362 46.1222 226.821 42.4324C228.281 38.7427 230.332 35.5333 232.975 32.8044C235.619 30.0755 238.774 27.9616 242.443 26.4626C246.112 24.9636 250.116 24.2142 254.456 24.2142C260.215 24.2142 265.028 25.4057 268.894 27.7886C272.8 30.1716 275.778 33.2464 277.83 37.0131L275.995 39.7228V25.9437H287.593V83.02H275.995V69.241L277.83 71.9506C275.778 75.7173 272.8 78.7921 268.894 81.1751C265.028 83.5581 260.215 84.7496 254.456 84.7496ZM256.172 73.5073C259.722 73.5073 262.898 72.7386 265.699 71.2012C268.5 69.6253 270.689 67.4153 272.267 64.5711C273.885 61.7269 274.693 58.3638 274.693 54.4819C274.693 50.5999 273.885 47.2368 272.267 44.3926C270.689 41.51 268.5 39.3 265.699 37.7626C262.898 36.2252 259.722 35.4564 256.172 35.4564C252.582 35.4564 249.386 36.2252 246.586 37.7626C243.824 39.3 241.635 41.51 240.017 44.3926C238.4 47.2368 237.591 50.5999 237.591 54.4819C237.591 58.3638 238.4 61.7269 240.017 64.5711C241.635 67.4153 243.824 69.6253 246.586 71.2012C249.386 72.7386 252.582 73.5073 256.172 73.5073Z" fill="white"/>
<path d="M296.159 83.02V25.9437H309.178V33.8422C311.387 30.2677 314.07 27.7694 317.225 26.3473C320.381 24.8868 323.774 24.1565 327.403 24.1565C328.587 24.1565 329.711 24.2142 330.776 24.3295C331.841 24.4448 332.867 24.6177 333.853 24.8483L332.137 37.9355C330.954 37.5896 329.751 37.3206 328.528 37.1284C327.305 36.9362 326.082 36.8401 324.859 36.8401C320.322 36.8401 316.575 38.2046 313.616 40.9335C310.657 43.6239 309.178 47.2945 309.178 51.9451V83.02H296.159Z" fill="white"/>
<path d="M368.229 84.7496C362.509 84.7496 357.933 83.1353 354.501 79.9067C351.069 76.6782 349.353 71.7393 349.353 65.09V9.28209H362.371V25.9437H378.644V36.4365H362.371V62.3226C362.371 66.3199 363.14 69.1449 364.679 70.7976C366.257 72.4119 368.466 73.219 371.306 73.219C372.687 73.219 373.989 73.0653 375.212 72.7578C376.435 72.4503 377.539 72.0467 378.525 71.5471L380.833 81.8093C379.137 82.6548 377.184 83.3467 374.975 83.8848C372.805 84.4613 370.557 84.7496 368.229 84.7496ZM336.512 36.4365V25.9437H351.069V36.4365H336.512Z" fill="white"/>
<path d="M415.362 84.7496C409.524 84.7496 404.356 83.4428 399.859 80.8292C395.401 78.1772 391.89 74.5835 389.326 70.0481C386.801 65.4743 385.539 60.2856 385.539 54.4819C385.539 50.1387 386.268 46.1222 387.728 42.4324C389.188 38.7427 391.239 35.5333 393.882 32.8044C396.525 30.0755 399.681 27.9616 403.35 26.4626C407.019 24.9636 411.023 24.2142 415.362 24.2142C421.122 24.2142 425.935 25.4057 429.801 27.7886C433.706 30.1716 436.685 33.2464 438.736 37.0131L436.902 39.7228V25.9437H448.5V83.02H436.902V69.241L438.736 71.9506C436.685 75.7173 433.706 78.7921 429.801 81.1751C425.935 83.5581 421.122 84.7496 415.362 84.7496ZM417.078 73.5073C420.629 73.5073 423.805 72.7386 426.605 71.2012C429.406 69.6253 431.596 67.4153 433.174 64.5711C434.791 61.7269 435.6 58.3638 435.6 54.4819C435.6 50.5999 434.791 47.2368 433.174 44.3926C431.596 41.51 429.406 39.3 426.605 37.7626C423.805 36.2252 420.629 35.4564 417.078 35.4564C413.489 35.4564 410.293 36.2252 407.492 37.7626C404.731 39.3 402.541 41.51 400.924 44.3926C399.306 47.2368 398.498 50.5999 398.498 54.4819C398.498 58.3638 399.306 61.7269 400.924 64.5711C402.541 67.4153 404.731 69.6253 407.492 71.2012C410.293 72.7386 413.489 73.5073 417.078 73.5073Z" fill="white"/>
<path d="M206.283 84.7496L206.138 76.2746C203.85 78.9651 201.128 81.0598 197.972 82.5588C194.856 84.0193 191.207 84.7496 187.025 84.7496H206.283Z" fill="white"/>
<path d="M186.75 28.9993C183.318 26.9623 178.978 25.9437 173.732 25.9437C169.55 25.9437 165.901 26.674 162.784 28.1345C159.628 29.6335 156.906 31.7282 154.618 34.4187V25.9437H142.902V84.7496H155.92V52.1757C155.92 49.2931 156.571 46.7564 157.873 44.5656C159.135 42.3748 160.851 40.6644 163.021 39.4345C165.191 38.243 167.656 37.6472 170.418 37.6472C174.639 37.6472 177.953 38.8195 180.359 41.1641C182.726 43.5471 183.91 46.6987 183.91 50.6191V66.1277H196.928V48.2554C196.928 44.2581 196.08 40.5683 194.383 37.186C192.687 33.8037 190.143 31.0748 186.75 28.9993Z" fill="white"/>
<path d="M154.618 25.9437V34.4187C156.906 31.7282 159.628 29.6335 162.784 28.1345C165.901 26.674 169.55 25.9437 173.732 25.9437H154.618Z" fill="white"/>
</svg>
